<?xml version="1.0" encoding="utf-8"?>
<svg version="1.1" id="Layer_1" x="0px" y="0px" viewBox="0 0 879 947" style="enable-background:new 0 0 1920 1080;" xmlns="http://www.w3.org/2000/svg">
  <style type="text/css">
	.st0{fill:#050004;}
</style>
  <path class="st0" d="M 667.922 658.952 L 875.692 658.952 L 875.692 674.142 L 674.772 674.142 C 676.672 687.892 669.502 703.792 654.782 714.182 C 627.172 727.992 609.222 762.512 576.082 780.452 C 542.942 798.392 513.952 773.552 513.952 773.552 C 522.232 848.112 490.482 888.152 490.482 888.152 C 484.332 894.342 442.562 935.002 378.472 930.782 C 318.902 926.862 283.952 887.062 277.852 879.872 C 267.142 869.132 245.352 850.542 214.342 844.832 C 195.162 841.302 182.702 844.822 179.822 845.352 C 172.952 846.612 158.262 851.562 147.552 866.002 C 138.132 878.702 137.112 892.192 137.022 897.822 C 137.022 903.222 137.022 906.102 137.022 906.102 C 137.022 906.162 140.272 924.912 132.882 935.102 C 125.982 944.622 109.922 946.502 98.362 943.382 C 91.162 941.442 86.072 937.662 83.172 935.102 C 40.372 888.162 84.552 820.502 125.972 799.792 C 167.392 779.082 258.522 788.742 299.942 834.312 C 341.362 879.872 395.212 872.972 395.212 872.972 C 468.392 868.832 458.722 788.752 458.722 788.752 C 422.822 810.842 384.162 808.082 384.162 808.082 C 280.612 808.082 265.422 731.092 265.422 731.092 C 265.422 731.092 225.442 701.592 226.622 674.152 L 1.692 674.152 L 1.692 658.962 L 232.272 658.962 C 249.612 636.512 277.512 650.262 290.902 658.962 L 611.812 658.962 C 618.272 653.522 628.122 647.552 640.622 647.222 C 646.102 647.082 650.902 648.052 654.772 649.292 C 657.462 650.512 663.222 653.482 667.922 658.952 Z M 875.692 462.892 L 875.692 478.082 L 596.232 478.082 C 584.402 486.712 571.482 491.802 563.742 490.512 C 555.322 489.102 546.472 483.362 539.822 478.082 L 309.702 478.082 C 308.282 480.322 307.782 482.222 307.782 482.222 C 288.122 493.192 271.512 490.222 256.842 478.082 L 1.692 478.082 L 1.692 462.892 L 242.652 462.892 C 238.602 457.552 234.692 451.532 230.892 444.942 C 210.182 409.042 262.082 393.852 262.082 393.852 C 253.112 384.052 245.782 374.152 239.822 364.292 L 163.952 391.892 C 160.612 393.102 157.062 391.762 156.022 388.902 C 154.982 386.032 156.842 382.732 160.182 381.512 L 234.372 354.532 C 229.892 345.842 226.432 337.222 223.822 328.762 C 223.352 328.892 222.852 328.972 222.322 328.972 L 149.282 328.972 C 146.232 328.972 143.762 326.502 143.762 323.452 C 143.762 320.402 146.232 317.932 149.282 317.932 L 220.902 317.932 C 206.432 254.972 236.422 203.332 236.422 203.332 C 236.422 203.332 172.912 114.962 203.282 74.922 C 233.662 34.882 323.402 106.682 323.402 106.682 C 400.722 66.642 468.382 79.072 468.382 79.072 C 527.752 -14.818 560.892 4.512 560.892 4.512 C 610.602 23.842 585.742 131.542 585.742 131.542 C 623.662 182.512 638.222 226.252 639.912 262.602 L 694.342 238.812 C 697.142 237.592 700.392 238.862 701.612 241.662 C 702.832 244.462 701.562 247.712 698.762 248.932 L 640.012 274.612 C 639.662 285.912 638.062 296.432 635.592 306.142 L 709.822 301.442 C 713.372 301.222 716.392 303.502 716.592 306.552 C 716.782 309.592 714.072 312.242 710.522 312.472 L 632.232 317.422 C 614.852 368.032 574.712 393.872 574.712 393.872 C 611.992 382.822 625.802 411.822 623.042 439.432 C 622.222 447.622 618.112 455.682 612.322 462.902 L 875.692 462.902 Z M 544.272 238.772 C 540.282 239.142 536.582 239.762 533.152 240.572 C 537.192 243.412 570.292 268.402 554.992 312.682 C 582.682 304.532 589.312 281.212 589.312 281.212 C 594.262 237.302 544.272 238.772 544.272 238.772 Z M 496.682 80.552 C 496.682 80.552 558.602 104.812 561.472 112.582 C 561.472 112.582 582.522 45.952 549.312 31.712 C 549.312 31.712 518.142 27.012 496.682 80.552 Z M 488.722 299.612 C 491.632 310.352 517.242 313.972 517.242 313.972 C 522.182 314.792 526.792 315.242 531.102 315.402 C 525.182 310.642 504.312 290.692 511.002 250.722 C 487.462 268.602 488.722 299.612 488.722 299.612 Z M 427.132 326.322 C 433.862 333.102 437.292 334.482 437.292 334.482 C 437.292 334.482 435.242 345.532 428.342 346.912 C 428.342 346.912 425.582 355.192 431.102 353.812 C 436.622 352.432 444.912 340.002 444.912 340.002 C 444.912 340.002 457.342 345.522 460.102 345.522 C 462.862 345.522 471.152 340.002 464.242 340.002 C 457.342 340.002 447.672 334.482 447.672 334.482 C 447.672 334.482 461.482 323.432 455.952 313.772 C 450.432 304.102 427.132 313.772 427.132 313.772 C 427.132 313.772 420.402 319.542 427.132 326.322 Z M 341.642 340.842 C 345.892 340.082 350.382 338.992 355.162 337.492 C 355.162 337.492 380.012 330.332 381.392 319.292 C 381.392 319.292 378.302 288.412 352.502 273.992 C 364.712 312.632 346.832 335.312 341.642 340.842 Z M 317.882 266.822 C 317.882 266.822 268.172 272.342 279.222 315.152 C 279.222 315.152 289.042 337.312 317.602 341.512 C 296.272 299.802 325.552 270.432 329.152 267.052 C 325.622 266.732 321.882 266.632 317.882 266.822 Z M 297.172 120.472 C 258.512 77.672 230.902 92.862 230.902 92.862 C 204.672 117.712 247.472 172.942 247.472 172.942 C 247.462 164.652 297.172 120.472 297.172 120.472 Z"/>
</svg>